<svg version="1.1" xmlns="http://www.w3.org/2000/svg" xmlns:xlink="http://www.w3.org/1999/xlink"
     viewBox="-1 -4 82 82">
    <defs>
        <style>
            .cls-3 {
                fill: #fff;
                filter: url(#drop-shadow-3);
                fill-rule: evenodd;
            }
        </style>

        <filter id="drop-shadow-3" filterUnits="userSpaceOnUse">
            <feOffset dx="1.414" dy="1.414" in="SourceAlpha"/>
            <feGaussianBlur stdDeviation="2.236" result="dropBlur"/>
            <feFlood flood-color="#0f1e20" flood-opacity="0.31"/>
            <feComposite operator="in" in2="dropBlur" result="dropShadowComp"/>
            <feComposite in="SourceGraphic" result="shadowed"/>
        </filter>
    </defs>
    <path class="cls-3" d="M69.615,56.342 L57.889,51.267 C57.613,51.129 57.307,50.792 57.045,50.343 L64.873,50.337 C65.010,50.350 68.238,50.645 70.825,49.534 C71.806,49.112 72.535,48.278 72.828,47.247 C73.123,46.206 72.936,45.105 72.317,44.222 C70.079,41.040 64.857,32.726 64.693,24.292 C64.690,24.147 64.217,9.806 50.044,9.689 C47.958,9.706 46.028,10.060 44.273,10.712 C43.890,9.737 43.326,8.720 42.488,7.764 C40.025,4.953 36.026,3.529 30.601,3.529 C25.177,3.529 21.178,4.953 18.714,7.761 C15.873,11.000 16.137,14.926 16.204,15.584 L16.204,21.962 C15.436,22.836 15.004,23.954 15.004,25.109 L15.004,29.905 C15.004,31.364 15.668,32.724 16.800,33.632 C17.899,37.981 20.199,41.257 21.003,42.309 L21.003,46.276 C21.003,47.437 20.370,48.501 19.351,49.058 L8.648,54.892 C5.167,56.791 3.006,60.428 3.006,64.390 L3.006,69.471 L55.797,69.471 L58.197,69.471 L74.994,69.471 L74.994,65.038 C74.994,61.331 72.932,58.000 69.615,56.342 ZM55.797,67.073 L5.406,67.073 L5.406,64.390 C5.406,61.307 7.088,58.474 9.796,56.999 L20.499,51.165 C22.291,50.188 23.403,48.314 23.403,46.277 L23.403,41.459 L23.123,41.125 C23.094,41.091 20.154,37.536 19.032,32.655 L18.923,32.180 L18.514,31.916 C17.819,31.468 17.404,30.716 17.404,29.906 L17.404,25.110 C17.404,24.437 17.689,23.810 18.208,23.342 L18.604,22.985 L18.604,15.518 L18.593,15.361 C18.589,15.329 18.181,12.006 20.518,9.342 C22.506,7.076 25.899,5.927 30.601,5.927 C35.287,5.927 38.672,7.067 40.663,9.318 C41.653,10.435 42.151,11.683 42.399,12.755 C42.418,12.839 42.436,12.922 42.453,13.004 C42.470,13.089 42.488,13.174 42.501,13.256 C42.517,13.350 42.530,13.438 42.543,13.527 C42.553,13.591 42.562,13.655 42.569,13.717 C42.587,13.865 42.602,14.009 42.611,14.142 C42.613,14.153 42.613,14.162 42.613,14.173 C42.621,14.303 42.627,14.425 42.631,14.536 C42.631,14.558 42.631,14.576 42.632,14.598 C42.634,14.697 42.634,14.792 42.633,14.875 C42.633,14.887 42.633,14.899 42.633,14.911 C42.628,15.192 42.609,15.360 42.609,15.364 L42.599,22.985 L42.995,23.343 C43.514,23.810 43.799,24.437 43.799,25.110 L43.799,29.906 C43.799,30.952 43.113,31.868 42.093,32.183 L41.495,32.366 L41.304,32.959 C40.501,35.454 39.358,37.759 37.903,39.809 C37.547,40.314 37.200,40.761 36.899,41.103 L36.600,41.443 L36.600,46.389 C36.600,46.692 36.630,46.989 36.677,47.282 C36.687,47.344 36.704,47.404 36.716,47.467 C36.762,47.707 36.825,47.944 36.902,48.174 C36.920,48.228 36.939,48.279 36.959,48.333 C37.053,48.584 37.162,48.826 37.289,49.059 C37.303,49.085 37.317,49.113 37.331,49.139 C37.505,49.446 37.705,49.737 37.936,50.006 L38.209,50.343 L38.256,50.343 C38.668,50.748 39.140,51.101 39.678,51.369 L51.139,57.095 C54.013,58.529 55.797,61.414 55.797,64.623 L55.797,67.073 ZM72.594,67.073 L58.197,67.073 L58.197,64.623 C58.197,60.500 55.904,56.794 52.214,54.950 L43.986,50.838 C44.189,50.375 44.215,49.845 44.038,49.335 C43.744,48.489 42.976,47.944 42.082,47.944 L39.422,47.944 C39.367,47.847 39.331,47.740 39.287,47.637 C39.227,47.499 39.156,47.364 39.116,47.218 C39.043,46.952 39.000,46.674 39.000,46.389 L39.000,42.335 C39.275,41.999 39.564,41.617 39.863,41.195 C41.349,39.097 42.541,36.761 43.407,34.242 C45.100,33.467 46.199,31.794 46.199,29.906 L46.199,25.110 C46.199,23.955 45.767,22.837 44.999,21.963 L44.999,15.586 C45.030,15.286 45.097,14.304 44.898,13.021 C46.443,12.414 48.175,12.102 50.045,12.086 C61.852,12.183 62.283,23.849 62.295,24.340 C62.471,33.432 67.989,42.237 70.354,45.600 C70.557,45.888 70.618,46.250 70.521,46.591 C70.466,46.788 70.307,47.145 69.879,47.329 C67.863,48.195 65.129,47.950 64.989,47.944 L56.730,47.944 C55.959,47.944 55.256,48.336 54.849,48.992 C54.444,49.645 54.405,50.444 54.746,51.129 C55.122,51.886 55.785,52.897 56.876,53.440 L68.570,58.502 C71.052,59.754 72.594,62.256 72.594,65.038 L72.594,67.073 Z"
         />
</svg>
