<svg version="1.1" xmlns="http://www.w3.org/2000/svg" xmlns:xlink="http://www.w3.org/1999/xlink"
     viewBox="-2 -3 82 82">
    <defs>
        <style>
            .cls-5 {
                fill: #fff;
                filter: url(#drop-shadow-5);
                fill-rule: evenodd;
            }
        </style>

        <filter id="drop-shadow-5" filterUnits="userSpaceOnUse">
            <feOffset dx="1.414" dy="1.414" in="SourceAlpha"/>
            <feGaussianBlur stdDeviation="2.236" result="dropBlur"/>
            <feFlood flood-color="#0f1e20" flood-opacity="0.31"/>
            <feComposite operator="in" in2="dropBlur" result="dropShadowComp"/>
            <feComposite in="SourceGraphic" result="shadowed"/>
        </filter>
    </defs>
    <path class="cls-5" d="M40.161,57.577 L40.161,62.333 C43.129,62.881 45.386,65.484 45.386,68.608 C45.386,72.128 42.520,74.994 39.000,74.994 C35.480,74.994 32.614,72.128 32.614,68.608 C32.614,65.484 34.871,62.881 37.839,62.333 L37.839,57.577 L3.006,57.577 L3.006,7.651 L23.906,7.651 L23.906,3.006 L54.094,3.006 L54.094,7.651 L74.994,7.651 L74.994,57.577 L40.161,57.577 ZM34.936,68.608 C34.936,70.848 36.759,72.671 39.000,72.671 C41.241,72.671 43.064,70.848 43.064,68.608 C43.064,66.367 41.241,64.544 39.000,64.544 C36.759,64.544 34.936,66.367 34.936,68.608 ZM51.772,5.328 L26.228,5.328 L26.228,7.651 L51.772,7.651 L51.772,5.328 ZM72.671,9.973 L5.329,9.973 L5.329,23.906 L14.617,23.906 L14.617,12.295 L23.906,12.295 L23.906,23.906 L54.094,23.906 L54.094,12.295 L63.383,12.295 L63.383,23.906 L72.671,23.906 L72.671,9.973 ZM21.584,28.550 L21.584,21.584 L16.939,21.584 L16.939,28.550 L21.584,28.550 ZM16.939,30.872 L16.939,40.161 C16.939,41.442 17.981,42.483 19.262,42.483 C20.542,42.483 21.584,41.442 21.584,40.161 L21.584,30.872 L16.939,30.872 ZM21.584,19.261 L21.584,14.617 L16.939,14.617 L16.939,19.261 L21.584,19.261 ZM61.061,28.550 L61.061,21.584 L56.416,21.584 L56.416,28.550 L61.061,28.550 ZM56.416,30.872 L56.416,40.161 C56.416,41.442 57.458,42.483 58.738,42.483 C60.019,42.483 61.061,41.442 61.061,40.161 L61.061,30.872 L56.416,30.872 ZM61.061,19.261 L61.061,14.617 L56.416,14.617 L56.416,19.261 L61.061,19.261 ZM72.671,26.228 L63.383,26.228 L63.383,40.161 C63.383,42.722 61.300,44.805 58.738,44.805 C56.177,44.805 54.094,42.722 54.094,40.161 L54.094,26.228 L23.906,26.228 L23.906,40.161 C23.906,42.722 21.823,44.805 19.262,44.805 C16.700,44.805 14.617,42.722 14.617,40.161 L14.617,26.228 L5.329,26.228 L5.329,55.255 L37.839,55.255 L37.839,45.966 L43.644,45.966 L43.644,48.289 L40.161,48.289 L40.161,50.611 L43.644,50.611 L43.644,52.933 L40.161,52.933 L40.161,55.255 L72.671,55.255 L72.671,26.228 ZM34.178,43.644 L34.918,38.459 C33.815,37.371 33.195,35.909 33.195,34.356 C33.195,31.154 35.799,28.550 39.000,28.550 C42.201,28.550 44.805,31.154 44.805,34.356 C44.805,35.909 44.185,37.371 43.082,38.459 L43.823,43.644 L34.178,43.644 ZM39.000,30.872 C37.080,30.872 35.517,32.435 35.517,34.356 C35.517,35.420 36.010,36.415 36.872,37.089 L37.401,37.502 L36.857,41.322 L41.144,41.322 L40.600,37.502 L41.129,37.089 C41.990,36.415 42.483,35.420 42.483,34.356 C42.483,32.435 40.920,30.872 39.000,30.872 ZM25.067,72.671 L22.745,72.671 L22.745,70.349 L25.067,70.349 L25.067,72.671 ZM25.067,68.027 L27.389,68.027 L27.389,70.349 L25.067,70.349 L25.067,68.027 ZM29.711,70.349 L29.711,72.671 L27.389,72.671 L27.389,70.349 L29.711,70.349 ZM27.389,74.994 L25.067,74.994 L25.067,72.671 L27.389,72.671 L27.389,74.994 ZM50.611,64.544 L48.289,64.544 L48.289,62.222 L50.611,62.222 L50.611,64.544 ZM50.611,59.899 L52.933,59.899 L52.933,62.222 L50.611,62.222 L50.611,59.899 ZM55.255,62.222 L55.255,64.544 L52.933,64.544 L52.933,62.222 L55.255,62.222 ZM52.933,66.866 L50.611,66.866 L50.611,64.544 L52.933,64.544 L52.933,66.866 Z"
          />
</svg>
