<svg version="1.1" xmlns="http://www.w3.org/2000/svg" xmlns:xlink="http://www.w3.org/1999/xlink"
     viewBox="-2 -4 82 82">
    <defs>
        <style>
            .cls-4 {
                fill: #fff;
                filter: url(#drop-shadow-4);
                fill-rule: evenodd;
            }
        </style>

        <filter id="drop-shadow-4" filterUnits="userSpaceOnUse">
            <feOffset dx="1.414" dy="1.414" in="SourceAlpha"/>
            <feGaussianBlur stdDeviation="2.236" result="dropBlur"/>
            <feFlood flood-color="#0f1e20" flood-opacity="0.31"/>
            <feComposite operator="in" in2="dropBlur" result="dropShadowComp"/>
            <feComposite in="SourceGraphic" result="shadowed"/>
        </filter>
    </defs>
    <path class="cls-4" d="M75.367,17.003 L70.847,27.143 C70.616,27.661 70.109,27.968 69.577,27.968 C69.390,27.968 69.197,27.930 69.013,27.847 L58.860,23.332 C58.158,23.021 57.843,22.201 58.155,21.502 C58.467,20.801 59.286,20.481 59.989,20.799 L67.096,23.958 C62.056,13.283 51.415,6.476 39.469,6.476 C22.617,6.476 8.907,20.169 8.907,37.000 C8.907,37.767 8.285,38.387 7.518,38.387 C6.751,38.387 6.129,37.767 6.129,37.000 C6.129,18.640 21.086,3.701 39.469,3.701 C52.562,3.701 64.215,11.198 69.681,22.940 L72.829,15.877 C73.142,15.177 73.962,14.859 74.663,15.174 C75.363,15.485 75.679,16.305 75.367,17.003 ZM25.577,37.000 C25.577,29.349 31.809,23.125 39.469,23.125 C47.129,23.125 53.361,29.349 53.361,37.000 C53.361,44.650 47.129,50.874 39.469,50.874 C31.809,50.874 25.577,44.650 25.577,37.000 ZM50.583,37.000 C50.583,30.880 45.597,25.900 39.469,25.900 C33.342,25.900 28.356,30.880 28.356,37.000 C28.356,43.120 33.342,48.099 39.469,48.099 C45.597,48.099 50.583,43.120 50.583,37.000 ZM38.847,43.096 L34.679,41.015 C33.993,40.672 33.715,39.839 34.059,39.153 C34.402,38.468 35.234,38.190 35.923,38.533 L38.925,40.033 L43.131,32.832 C43.519,32.172 44.366,31.950 45.032,32.332 C45.694,32.718 45.918,33.567 45.532,34.231 L40.670,42.555 C40.413,42.996 39.949,43.243 39.468,43.242 C39.258,43.242 39.047,43.195 38.847,43.096 ZM9.988,46.094 L20.142,50.609 C20.843,50.920 21.158,51.740 20.846,52.439 C20.533,53.141 19.714,53.459 19.012,53.143 L11.798,49.935 C16.820,60.664 27.507,67.523 39.469,67.523 C56.322,67.523 70.032,53.831 70.032,37.000 C70.032,36.233 70.654,35.612 71.421,35.612 C72.188,35.612 72.810,36.234 72.807,37.000 C72.807,55.360 57.850,70.298 39.467,70.298 C26.412,70.298 14.751,62.810 9.277,51.100 L6.172,58.065 C5.941,58.583 5.434,58.889 4.902,58.889 C4.715,58.889 4.522,58.852 4.338,58.769 C3.637,58.458 3.321,57.638 3.634,56.939 L8.154,46.798 C8.465,46.097 9.285,45.777 9.988,46.094 Z"
          />
</svg>
