<svg version="1.1" xmlns="http://www.w3.org/2000/svg" xmlns:xlink="http://www.w3.org/1999/xlink" viewBox="-3 -1 60 60">
  <defs>
    <style>
      .cls-1 {
        fill: #fff;
        filter: url(#drop-shadow-1);
        fill-rule: evenodd;
      }
    </style>

    <filter id="drop-shadow-1" filterUnits="userSpaceOnUse">
      <feOffset dx="1.414" dy="1.414" in="SourceAlpha"/>
      <feGaussianBlur stdDeviation="2.236" result="dropBlur"/>
      <feFlood flood-color="#0f1e20" flood-opacity="0.31"/>
      <feComposite operator="in" in2="dropBlur" result="dropShadowComp"/>
      <feComposite in="SourceGraphic" result="shadowed"/>
    </filter>

  </defs>
  <path class="cls-1" d="M37.208,20.956 C37.566,20.698 38.060,20.737 38.373,21.050 C38.687,21.364 38.726,21.858 38.467,22.216 L30.031,33.888 C29.476,34.652 28.621,35.130 27.683,35.204 C27.599,35.210 27.515,35.214 27.431,35.214 C26.583,35.214 25.768,34.878 25.163,34.272 C24.499,33.608 24.160,32.689 24.233,31.750 C24.306,30.811 24.784,29.955 25.545,29.402 L37.208,20.956 ZM26.437,32.997 C26.729,33.290 27.132,33.433 27.542,33.405 C27.954,33.373 28.329,33.163 28.573,32.828 L33.718,25.709 L26.603,30.861 C26.272,31.103 26.061,31.479 26.029,31.891 C25.997,32.302 26.146,32.706 26.437,32.997 ZM47.804,13.489 L46.530,12.214 L44.594,14.150 C45.818,15.469 46.896,16.923 47.806,18.487 C47.818,18.504 47.835,18.514 47.846,18.532 C47.856,18.551 47.856,18.570 47.865,18.589 C49.922,22.160 51.105,26.295 51.105,30.705 C51.105,35.114 49.922,39.250 47.864,42.820 C47.855,42.839 47.856,42.859 47.845,42.878 C47.830,42.905 47.808,42.924 47.791,42.949 C45.666,46.588 42.625,49.627 38.986,51.750 C38.969,51.762 38.959,51.779 38.941,51.790 C38.914,51.806 38.884,51.812 38.856,51.825 C35.341,53.847 31.277,55.017 26.946,55.047 C26.939,55.047 26.933,55.051 26.926,55.051 C26.920,55.051 26.916,55.048 26.909,55.048 C26.865,55.049 26.823,55.051 26.779,55.051 C24.956,55.051 23.119,54.842 21.321,54.427 C20.836,54.316 20.533,53.832 20.644,53.347 C20.755,52.862 21.239,52.554 21.724,52.670 C23.144,52.996 24.588,53.177 26.027,53.226 L26.027,51.444 C26.027,50.946 26.429,50.543 26.928,50.543 C27.426,50.543 27.829,50.946 27.829,51.444 L27.829,53.219 C31.217,53.063 34.410,52.152 37.249,50.654 L36.361,49.114 C36.111,48.684 36.259,48.132 36.690,47.883 C37.119,47.633 37.672,47.780 37.921,48.213 L38.807,49.748 C41.626,47.959 44.021,45.562 45.809,42.740 L44.275,41.854 C43.844,41.605 43.696,41.054 43.945,40.622 C44.194,40.189 44.745,40.043 45.176,40.292 L46.714,41.181 C48.232,38.299 49.144,35.051 49.280,31.606 L47.501,31.606 C47.003,31.606 46.600,31.203 46.600,30.704 C46.600,30.205 47.003,29.802 47.501,29.802 L49.280,29.802 C49.144,26.357 48.232,23.109 46.714,20.227 L45.176,21.116 C45.034,21.198 44.879,21.237 44.726,21.237 C44.414,21.237 44.112,21.075 43.945,20.786 C43.695,20.354 43.843,19.803 44.273,19.554 L45.807,18.668 C44.019,15.846 41.624,13.449 38.805,11.660 L37.919,13.195 C37.753,13.485 37.450,13.646 37.138,13.646 C36.985,13.646 36.830,13.607 36.689,13.525 C36.258,13.276 36.110,12.725 36.359,12.294 L37.247,10.754 C34.408,9.256 31.215,8.345 27.827,8.189 L27.827,9.965 C27.827,10.464 27.424,10.867 26.926,10.867 C26.428,10.867 26.025,10.464 26.025,9.965 L26.025,8.183 C25.760,8.195 25.488,8.211 25.192,8.234 L24.226,8.309 C23.387,8.405 22.550,8.549 21.721,8.739 C21.236,8.852 20.752,8.547 20.642,8.062 C20.530,7.577 20.833,7.092 21.318,6.981 C22.279,6.762 23.250,6.603 24.223,6.499 L24.223,5.457 L22.871,5.457 C21.629,5.457 20.619,4.446 20.619,3.202 C20.619,1.959 21.629,0.948 22.871,0.948 L30.980,0.948 C32.223,0.948 33.233,1.959 33.233,3.202 C33.233,4.446 32.223,5.457 30.981,5.457 L29.630,5.457 L29.630,6.531 C32.968,6.923 36.098,7.993 38.885,9.600 C38.904,9.610 38.924,9.609 38.943,9.620 C38.961,9.631 38.971,9.648 38.988,9.660 C40.551,10.571 42.003,11.651 43.321,12.875 L45.256,10.939 L43.981,9.663 L47.804,5.838 L51.626,9.663 L47.804,13.489 ZM30.980,3.653 C31.228,3.653 31.431,3.450 31.431,3.202 C31.431,2.955 31.228,2.751 30.980,2.751 L22.871,2.751 C22.624,2.751 22.421,2.955 22.421,3.202 C22.421,3.450 22.624,3.653 22.871,3.653 L26.025,3.653 L26.025,6.377 C26.133,6.373 26.231,6.374 26.336,6.371 C26.483,6.368 26.631,6.358 26.779,6.358 C26.801,6.358 26.824,6.360 26.846,6.360 C26.872,6.360 26.900,6.358 26.926,6.358 C27.214,6.358 27.513,6.365 27.827,6.377 L27.827,3.653 L30.980,3.653 ZM47.803,8.388 L46.528,9.663 L47.803,10.939 L49.077,9.663 L47.803,8.388 ZM18.817,46.936 L12.510,46.936 C12.012,46.936 11.609,46.533 11.609,46.034 C11.609,45.535 12.012,45.133 12.510,45.133 L18.817,45.133 C19.315,45.133 19.718,45.535 19.718,46.034 C19.718,46.533 19.315,46.936 18.817,46.936 ZM18.817,40.624 L7.105,40.624 C6.606,40.624 6.204,40.221 6.204,39.722 C6.204,39.223 6.606,38.820 7.105,38.820 L18.817,38.820 C19.315,38.820 19.718,39.223 19.718,39.722 C19.718,40.221 19.315,40.624 18.817,40.624 ZM18.817,34.312 L1.699,34.312 C1.201,34.312 0.798,33.909 0.798,33.410 C0.798,32.911 1.201,32.508 1.699,32.508 L18.817,32.508 C19.315,32.508 19.718,32.911 19.718,33.410 C19.718,33.909 19.315,34.312 18.817,34.312 ZM18.817,28.000 L5.303,28.000 C4.804,28.000 4.402,27.597 4.402,27.098 C4.402,26.599 4.804,26.196 5.303,26.196 L18.817,26.196 C19.315,26.196 19.718,26.599 19.718,27.098 C19.718,27.597 19.315,28.000 18.817,28.000 ZM18.817,21.688 L9.807,21.688 C9.309,21.688 8.906,21.285 8.906,20.786 C8.906,20.287 9.309,19.884 9.807,19.884 L18.817,19.884 C19.315,19.884 19.718,20.287 19.718,20.786 C19.718,21.285 19.315,21.688 18.817,21.688 ZM18.817,15.376 L14.312,15.376 C13.814,15.376 13.411,14.972 13.411,14.474 C13.411,13.975 13.814,13.572 14.312,13.572 L18.817,13.572 C19.315,13.572 19.718,13.975 19.718,14.474 C19.718,14.972 19.315,15.376 18.817,15.376 Z"/>
</svg>
