<svg version="1.1" xmlns="http://www.w3.org/2000/svg" xmlns:xlink="http://www.w3.org/1999/xlink" viewBox="-3 -2 60 60">
  <defs>
    <style>
      .cls-2 {
        fill: #fff;
        filter: url(#drop-shadow-2);
        fill-rule: evenodd;
      }
    </style>

    <filter id="drop-shadow-2" filterUnits="userSpaceOnUse">
      <feOffset dx="1.414" dy="1.414" in="SourceAlpha"/>
      <feGaussianBlur stdDeviation="2.236" result="dropBlur"/>
      <feFlood flood-color="#0f1e20" flood-opacity="0.31"/>
      <feComposite operator="in" in2="dropBlur" result="dropShadowComp"/>
      <feComposite in="SourceGraphic" result="shadowed"/>
    </filter>

  </defs>
  <path class="cls-2" d="M7.991,27.583 C7.991,25.515 9.674,23.831 11.743,23.831 C13.811,23.831 15.494,25.515 15.494,27.583 C15.494,29.652 13.811,31.335 11.743,31.335 C9.674,31.335 7.991,29.652 7.991,27.583 ZM13.827,27.583 C13.827,26.433 12.891,25.499 11.743,25.499 C10.594,25.499 9.658,26.433 9.658,27.583 C9.658,28.733 10.594,29.667 11.743,29.667 C12.891,29.667 13.827,28.733 13.827,27.583 ZM7.991,43.424 C7.991,41.355 9.674,39.672 11.743,39.672 C13.811,39.672 15.494,41.355 15.494,43.424 C15.494,45.492 13.811,47.175 11.743,47.175 C9.674,47.175 7.991,45.492 7.991,43.424 ZM13.827,43.424 C13.827,42.274 12.891,41.339 11.743,41.339 C10.594,41.339 9.658,42.274 9.658,43.424 C9.658,44.573 10.594,45.508 11.743,45.508 C12.891,45.508 13.827,44.573 13.827,43.424 ZM53.011,22.671 L53.011,34.670 L51.344,34.670 L51.344,22.671 C51.344,21.472 50.368,20.497 49.169,20.497 L6.830,20.497 C5.632,20.497 4.656,21.472 4.656,22.671 L4.656,32.495 C4.656,33.694 5.632,34.670 6.830,34.670 L30.501,34.670 L30.501,36.337 L6.830,36.337 C5.632,36.337 4.656,37.312 4.656,38.511 L4.656,48.336 C4.656,49.535 5.632,50.510 6.830,50.510 L28.000,50.510 L28.000,52.177 L6.830,52.177 C4.712,52.177 2.989,50.454 2.989,48.335 L2.989,38.511 C2.989,37.287 3.575,36.208 4.470,35.503 C3.575,34.799 2.989,33.719 2.989,32.494 L2.989,22.671 C2.989,21.447 3.575,20.367 4.470,19.663 C3.575,18.958 2.989,17.879 2.989,16.654 L2.989,6.830 C2.989,4.712 4.712,2.989 6.830,2.989 L49.169,2.989 C51.288,2.989 53.011,4.712 53.011,6.830 L53.011,16.655 C53.011,17.879 52.425,18.958 51.530,19.663 C52.425,20.366 53.011,21.446 53.011,22.671 ZM51.344,6.830 C51.344,5.632 50.368,4.656 49.169,4.656 L6.830,4.656 C5.632,4.656 4.656,5.632 4.656,6.830 L4.656,16.655 C4.656,17.854 5.632,18.829 6.830,18.829 L49.169,18.829 C50.368,18.829 51.344,17.854 51.344,16.654 L51.344,6.830 ZM46.342,13.827 C45.881,13.827 45.508,13.454 45.508,12.993 C45.508,12.533 45.881,12.159 46.342,12.159 C46.802,12.159 47.175,12.533 47.175,12.993 C47.175,13.454 46.802,13.827 46.342,13.827 ZM44.674,11.326 C44.214,11.326 43.840,10.953 43.840,10.492 C43.840,10.032 44.214,9.658 44.674,9.658 C45.135,9.658 45.508,10.032 45.508,10.492 C45.508,10.953 45.135,11.326 44.674,11.326 ZM43.007,13.827 C42.546,13.827 42.173,13.454 42.173,12.993 C42.173,12.533 42.546,12.159 43.007,12.159 C43.467,12.159 43.840,12.533 43.840,12.993 C43.840,13.454 43.467,13.827 43.007,13.827 ZM41.339,11.326 C40.879,11.326 40.506,10.953 40.506,10.492 C40.506,10.032 40.879,9.658 41.339,9.658 C41.800,9.658 42.173,10.032 42.173,10.492 C42.173,10.953 41.800,11.326 41.339,11.326 ZM39.672,13.827 C39.211,13.827 38.838,13.454 38.838,12.993 C38.838,12.533 39.211,12.159 39.672,12.159 C40.132,12.159 40.506,12.533 40.506,12.993 C40.506,13.454 40.132,13.827 39.672,13.827 ZM38.004,11.326 C37.544,11.326 37.171,10.953 37.171,10.492 C37.171,10.032 37.544,9.658 38.004,9.658 C38.465,9.658 38.838,10.032 38.838,10.492 C38.838,10.953 38.465,11.326 38.004,11.326 ZM36.337,13.827 C35.877,13.827 35.503,13.454 35.503,12.993 C35.503,12.533 35.877,12.159 36.337,12.159 C36.797,12.159 37.171,12.533 37.171,12.993 C37.171,13.454 36.797,13.827 36.337,13.827 ZM34.670,11.326 C34.209,11.326 33.836,10.953 33.836,10.492 C33.836,10.032 34.209,9.658 34.670,9.658 C35.130,9.658 35.503,10.032 35.503,10.492 C35.503,10.953 35.130,11.326 34.670,11.326 ZM33.002,13.827 C32.542,13.827 32.169,13.454 32.169,12.993 C32.169,12.533 32.542,12.159 33.002,12.159 C33.463,12.159 33.836,12.533 33.836,12.993 C33.836,13.454 33.463,13.827 33.002,13.827 ZM31.335,11.326 C30.874,11.326 30.501,10.953 30.501,10.492 C30.501,10.032 30.874,9.658 31.335,9.658 C31.795,9.658 32.169,10.032 32.169,10.492 C32.169,10.953 31.795,11.326 31.335,11.326 ZM11.743,15.494 C9.674,15.494 7.991,13.811 7.991,11.743 C7.991,9.674 9.674,7.991 11.743,7.991 C13.811,7.991 15.494,9.674 15.494,11.743 C15.494,13.811 13.811,15.494 11.743,15.494 ZM11.743,9.658 C10.594,9.658 9.658,10.593 9.658,11.743 C9.658,12.892 10.594,13.827 11.743,13.827 C12.891,13.827 13.827,12.892 13.827,11.743 C13.827,10.593 12.891,9.658 11.743,9.658 ZM31.335,25.499 C31.795,25.499 32.169,25.872 32.169,26.333 C32.169,26.793 31.795,27.166 31.335,27.166 C30.874,27.166 30.501,26.793 30.501,26.333 C30.501,25.872 30.874,25.499 31.335,25.499 ZM33.002,28.000 C33.463,28.000 33.836,28.373 33.836,28.834 C33.836,29.294 33.463,29.667 33.002,29.667 C32.542,29.667 32.169,29.294 32.169,28.834 C32.169,28.373 32.542,28.000 33.002,28.000 ZM33.836,26.333 C33.836,25.872 34.209,25.499 34.670,25.499 C35.130,25.499 35.503,25.872 35.503,26.333 C35.503,26.793 35.130,27.166 34.670,27.166 C34.209,27.166 33.836,26.793 33.836,26.333 ZM36.337,29.667 C35.877,29.667 35.503,29.294 35.503,28.834 C35.503,28.373 35.877,28.000 36.337,28.000 C36.797,28.000 37.171,28.373 37.171,28.834 C37.171,29.294 36.797,29.667 36.337,29.667 ZM38.004,25.499 C38.465,25.499 38.838,25.872 38.838,26.333 C38.838,26.793 38.465,27.166 38.004,27.166 C37.544,27.166 37.171,26.793 37.171,26.333 C37.171,25.872 37.544,25.499 38.004,25.499 ZM39.672,29.667 C39.211,29.667 38.838,29.294 38.838,28.834 C38.838,28.373 39.211,28.000 39.672,28.000 C40.132,28.000 40.506,28.373 40.506,28.834 C40.506,29.294 40.132,29.667 39.672,29.667 ZM41.339,25.499 C41.800,25.499 42.173,25.872 42.173,26.333 C42.173,26.793 41.800,27.166 41.339,27.166 C40.879,27.166 40.506,26.793 40.506,26.333 C40.506,25.872 40.879,25.499 41.339,25.499 ZM43.007,29.667 C42.546,29.667 42.173,29.294 42.173,28.834 C42.173,28.373 42.546,28.000 43.007,28.000 C43.467,28.000 43.840,28.373 43.840,28.834 C43.840,29.294 43.467,29.667 43.007,29.667 ZM44.674,25.499 C45.135,25.499 45.508,25.872 45.508,26.333 C45.508,26.793 45.135,27.166 44.674,27.166 C44.214,27.166 43.840,26.793 43.840,26.333 C43.840,25.872 44.214,25.499 44.674,25.499 ZM45.508,28.834 C45.508,28.373 45.881,28.000 46.342,28.000 C46.802,28.000 47.175,28.373 47.175,28.834 C47.175,29.294 46.802,29.667 46.342,29.667 C45.881,29.667 45.508,29.294 45.508,28.834 ZM35.503,37.171 C35.503,33.953 38.121,31.335 41.339,31.335 C44.557,31.335 47.175,33.953 47.175,37.171 L47.175,38.004 L50.510,38.004 L50.510,53.011 L32.169,53.011 L32.169,38.004 L35.503,38.004 L35.503,37.171 ZM45.508,37.171 C45.508,34.872 43.638,33.002 41.339,33.002 C39.041,33.002 37.171,34.872 37.171,37.171 L37.171,38.004 L45.508,38.004 L45.508,37.171 ZM33.836,39.672 L33.836,51.344 L48.843,51.344 L48.843,39.672 L47.175,39.672 L35.503,39.672 L33.836,39.672 ZM41.339,42.173 C43.178,42.173 44.674,43.669 44.674,45.508 C44.674,47.058 43.607,48.352 42.173,48.724 L42.173,49.676 C42.173,50.137 41.799,50.510 41.339,50.510 C40.879,50.510 40.506,50.137 40.506,49.676 L40.506,48.724 C39.072,48.352 38.004,47.058 38.004,45.508 C38.004,43.669 39.500,42.173 41.339,42.173 ZM41.339,47.175 C42.259,47.175 43.007,46.427 43.007,45.508 C43.007,44.588 42.259,43.840 41.339,43.840 C40.420,43.840 39.672,44.588 39.672,45.508 C39.672,46.427 40.420,47.175 41.339,47.175 Z"/>
</svg>
