<svg xmlns="http://www.w3.org/2000/svg" xmlns:xlink="http://www.w3.org/1999/xlink" width="81" height="91" viewBox="0 0 81 91">

    <defs>
        <style>
            .cls-8 {
                fill: #fff;
                fill-rule: evenodd;
                filter: url(#drop-shadow-8);
            }
        </style>
        <filter id="drop-shadow-8" x="0" y="0" width="81" height="91" filterUnits="userSpaceOnUse">
            <feOffset result="offset" dx="1.414" dy="1.414" in="SourceAlpha"/>
            <feGaussianBlur result="blur" stdDeviation="2.236"/>
            <feFlood result="flood" flood-color="#0f1e20" flood-opacity="0.31"/>
            <feComposite result="composite" operator="in" in2="blur"/>
            <feBlend result="blend" in="SourceGraphic"/>
        </filter>
    </defs>

    <path class="cls-8" d="M62.775,82.062H5.715V5.938H47.831V19.532a1.284,1.284,0,0,0,1.359,1.359H62.775V54.875h2.717V19.532h0a0.5,0.5,0,0,0-.136-0.408V18.988c-0.136-.136-0.136-0.272-0.272-0.408L50.14,3.627C50,3.491,49.869,3.491,49.733,3.355H49.6c-0.136,0-.272-0.136-0.408-0.136H4.357A1.284,1.284,0,0,0,3,4.579V83.421a1.284,1.284,0,0,0,1.359,1.359H64.133a1.284,1.284,0,0,0,1.359-1.359V79.343H62.775v2.719h0Zm-1.9-63.89H50.548V7.841ZM73.643,64.39H68.209V60.312a1.284,1.284,0,0,0-1.359-1.359H42.4v2.719h23.1V64.39H22.018a1.931,1.931,0,0,0-.815.272L11.965,68.6a1.326,1.326,0,0,0,0,2.447L21.2,74.993a0.5,0.5,0,0,0,.408.136c0.136,0,.272.136,0.408,0.136H73.643A1.284,1.284,0,0,0,75,73.906V65.75A1.284,1.284,0,0,0,73.643,64.39Zm-52.984,3.4v4.078L15.9,69.828Zm2.717-.68H57.341v5.438H23.377V67.109Zm48.908,5.438H60.058V67.109H72.285v5.438ZM11.149,52.156h4.076v2.719H11.149V52.156Zm8.151,0h4.076v2.719H19.3V52.156Zm8.151,0h4.076v2.719H27.452V52.156Zm-16.3,6.8h4.076v2.719H11.149V58.953Zm8.151,0h4.076v2.719H19.3V58.953Zm8.151,0h4.076v2.719H27.452V58.953Zm8.151-6.8H57.341v2.719H35.6V52.156Zm-24.454-6.8H57.341v2.719H11.149V45.359Zm0-6.8H57.341v2.719H11.149V38.562Zm0-6.8H57.341v2.719H11.149V31.766Zm0-6.8H32.886v2.719H11.149V24.969Zm0-13.594h6.793v2.719H11.149V11.375Zm0,5.438H23.377v2.719H11.149V16.813Z"/>
</svg>
