<svg xmlns="http://www.w3.org/2000/svg" xmlns:xlink="http://www.w3.org/1999/xlink" width="82" height="81" viewBox="0 0 82 81">

  <defs>
    <style>
      .cls-6 {
        fill: #fff;
        fill-rule: evenodd;
        filter: url(#drop-shadow-6);
      }
    </style>
    <filter id="drop-shadow-6" x="0" y="0" width="82" height="81" filterUnits="userSpaceOnUse">
      <feOffset result="offset" dx="1.414" dy="1.414" in="SourceAlpha"/>
      <feGaussianBlur result="blur" stdDeviation="2.236"/>
      <feFlood result="flood" flood-color="#0f1e20" flood-opacity="0.31"/>
      <feComposite result="composite" operator="in" in2="blur"/>
      <feBlend result="blend" in="SourceGraphic"/>
    </filter>
  </defs>

  <path class="cls-6" d="M59.09,23.085a1.33,1.33,0,0,0,.976-0.423l0.91-.973a1.335,1.335,0,0,0-1.953-1.82l-0.91.973A1.333,1.333,0,0,0,59.09,23.085Zm-3.643,3.9a1.325,1.325,0,0,0,.976-0.424l0.91-.975a1.334,1.334,0,0,0-1.953-1.817l-0.91.975A1.333,1.333,0,0,0,55.447,26.984Zm-3.708.68-0.912.975a1.335,1.335,0,0,0,1.953,1.821l0.912-.974A1.335,1.335,0,0,0,51.738,27.664Zm10.995-8.477a1.329,1.329,0,0,0,.976-0.423l0.912-.975a1.335,1.335,0,0,0-1.953-1.82l-0.912.975A1.333,1.333,0,0,0,62.733,19.187Zm7.287-7.8A1.329,1.329,0,0,0,71,10.966l0.473-.505a1.335,1.335,0,0,0-1.953-1.82l-0.472.505A1.333,1.333,0,0,0,70.02,11.388Zm-3.644,3.9a1.326,1.326,0,0,0,.975-0.423l0.912-.973a1.334,1.334,0,0,0-1.95-1.82l-0.912.973A1.333,1.333,0,0,0,66.376,15.287ZM38.453,17.55a1.333,1.333,0,0,0,1.335-1.333V14.883a1.335,1.335,0,0,0-2.67,0v1.333A1.334,1.334,0,0,0,38.453,17.55Zm0,5.333a1.333,1.333,0,0,0,1.335-1.333V20.216a1.335,1.335,0,0,0-2.67,0v1.333A1.334,1.334,0,0,0,38.453,22.883Zm0-10.666a1.333,1.333,0,0,0,1.335-1.333V9.55a1.335,1.335,0,0,0-2.67,0v1.333A1.334,1.334,0,0,0,38.453,12.216Zm0,16a1.333,1.333,0,0,0,1.335-1.333V25.549a1.335,1.335,0,0,0-2.67,0v1.333A1.334,1.334,0,0,0,38.453,28.216ZM59.5,42.882h1.335a1.333,1.333,0,1,0,0-2.667H59.5A1.333,1.333,0,1,0,59.5,42.882Zm-4-2.667H54.158a1.333,1.333,0,1,0,0,2.667h1.335A1.333,1.333,0,1,0,55.493,40.215Zm14.684,0a1.333,1.333,0,1,0,0,2.667h1.335a1.333,1.333,0,1,0,0-2.667H70.178Zm-5.34,2.667h1.335a1.333,1.333,0,1,0,0-2.667H64.838A1.333,1.333,0,1,0,64.838,42.882ZM74.981,57.534c-2.681-5.06-11.989-10.549-12.4-10.789a6.588,6.588,0,0,0-4.967-.861,4.437,4.437,0,0,0-2.663,2.061,44.983,44.983,0,0,1-3.46,3.823c-3.164,2.139-5.676,1.885-8.4-.839L27.755,35.616c-2.73-2.727-2.981-5.237-.842-8.389a44.48,44.48,0,0,1,3.83-3.46,4.436,4.436,0,0,0,2.064-2.661,6.585,6.585,0,0,0-.872-4.974C31.7,15.736,26.209,6.438,21.141,3.762A6.556,6.556,0,0,0,13.4,4.925L10.017,8.307c-9.881,9.869-8.052,22.126,5.289,35.45l19.63,19.607C41,69.417,46.867,73.132,52.382,74.4a19.117,19.117,0,0,0,4.3.507c4.962,0,9.57-2.1,13.745-6.267l3.387-3.383A6.541,6.541,0,0,0,74.981,57.534Zm-3.052,5.842-3.387,3.383c-8.768,8.757-19.441,6.983-31.718-5.281L17.194,41.87C4.916,29.609,3.137,18.951,11.9,10.191l3.387-3.382a3.9,3.9,0,0,1,4.6-.691c4.4,2.324,9.686,11.272,9.73,11.348a4.1,4.1,0,0,1,.61,2.928,1.792,1.792,0,0,1-.913,1.115l-0.2.139A39.472,39.472,0,0,0,24.7,25.728a11.022,11.022,0,0,0-1.643,3.553,18.864,18.864,0,0,1-1.968-6.508,1.336,1.336,0,0,0-2.658.276c0.964,9.27,8.183,15.3,8.489,15.557,0.033,0.028.073,0.037,0.108,0.061L41.2,52.815c0.06,0.06.121,0.112,0.181,0.169a1.252,1.252,0,0,0,.139.207A27.868,27.868,0,0,0,57,60.235c0.047,0,.093.007,0.139,0.007a1.333,1.333,0,0,0,.136-2.66A23.539,23.539,0,0,1,49.873,55.5a11.5,11.5,0,0,0,3.114-1.528,39.325,39.325,0,0,0,4.085-4.41l0.139-.2a1.806,1.806,0,0,1,1.116-.912,4.123,4.123,0,0,1,2.917.6c2.508,1.469,9.442,6.08,11.375,9.728A3.887,3.887,0,0,1,71.929,63.376ZM56.86,33.69a1.338,1.338,0,0,0-1.792-.6l-1.195.6a1.334,1.334,0,0,0,1.195,2.387l1.195-.6A1.335,1.335,0,0,0,56.86,33.69ZM64.622,31.3l1.195-.6a1.334,1.334,0,1,0-1.195-2.385l-1.195.6a1.334,1.334,0,0,0,.6,2.527A1.362,1.362,0,0,0,64.622,31.3ZM68.8,29.061a1.338,1.338,0,0,0,.6-0.14l1.195-.6A1.334,1.334,0,1,0,69.4,25.94l-1.195.6A1.333,1.333,0,0,0,68.8,29.061ZM59.847,33.69l1.194-.6a1.334,1.334,0,1,0-1.195-2.385l-1.194.6a1.334,1.334,0,0,0,.6,2.527A1.363,1.363,0,0,0,59.847,33.69ZM44.615,28.113a1.336,1.336,0,0,0,1.746-.717l0.514-1.231a1.335,1.335,0,0,0-2.464-1.026L43.9,26.369A1.332,1.332,0,0,0,44.615,28.113Zm6.161-14.769a1.336,1.336,0,0,0,1.746-.717L53.036,11.4a1.335,1.335,0,0,0-2.464-1.027L50.057,11.6A1.332,1.332,0,0,0,50.776,13.344Zm-2.053,4.922a1.319,1.319,0,0,0,.514.1,1.333,1.333,0,0,0,1.232-.82l0.514-1.231a1.335,1.335,0,0,0-2.464-1.027L48,16.523A1.332,1.332,0,0,0,48.723,18.267Zm-2.054,4.924a1.336,1.336,0,0,0,1.746-.717l0.514-1.231a1.335,1.335,0,0,0-2.464-1.026L45.95,21.447A1.332,1.332,0,0,0,46.668,23.191Z"/>
</svg>
