<svg xmlns="http://www.w3.org/2000/svg" xmlns:xlink="http://www.w3.org/1999/xlink" width="81" height="87" viewBox="0 0 81 87">

    <defs>
        <style>
            .cls-7 {
                fill: #fff;
                fill-rule: evenodd;
                filter: url(#drop-shadow-7);
            }
        </style>
        <filter id="drop-shadow-7" x="0" y="0" width="81" height="87" filterUnits="userSpaceOnUse">
            <feOffset result="offset" dx="1.414" dy="1.414" in="SourceAlpha"/>
            <feGaussianBlur result="blur" stdDeviation="2.236"/>
            <feFlood result="flood" flood-color="#0f1e20" flood-opacity="0.31"/>
            <feComposite result="composite" operator="in" in2="blur"/>
            <feBlend result="blend" in="SourceGraphic"/>
        </filter>
    </defs>

    <path class="cls-7" d="M27.324,22.683a7.65,7.65,0,0,0-15.3,0v3.863a7.644,7.644,0,0,0,12.133,6.189l1.1,1.1a1.207,1.207,0,0,0,1.708-1.707l-1.1-1.1a7.6,7.6,0,0,0,1.458-4.482V22.683Zm-2.416,3.863a5.2,5.2,0,0,1-.78,2.744l-0.379-.379a1.208,1.208,0,0,0-1.708,1.707L22.42,31a5.231,5.231,0,0,1-7.98-4.452V22.683a5.234,5.234,0,0,1,10.468,0v3.863h0Zm35.882-.271-3.4-14.745A3.767,3.767,0,0,0,53.7,8.6H52.645a3.767,3.767,0,0,0-3.688,2.932l-3.4,14.745a1.208,1.208,0,0,0,2.354.543L48.88,22.6h8.583l0.973,4.216A1.208,1.208,0,0,0,60.79,26.275ZM49.438,20.188l1.873-8.115a1.363,1.363,0,0,1,1.334-1.061H53.7a1.363,1.363,0,0,1,1.334,1.061l1.873,8.115H49.438ZM68.632,3.446H37.711A6.367,6.367,0,0,0,31.35,9.8v0.08H9.368a6.367,6.367,0,0,0-6.361,6.358V34.273a6.367,6.367,0,0,0,6.361,6.358H24.909v3.384a11.589,11.589,0,0,0-3.946-.648c-4.812,0-8.308,2.435-10.39,7.239C9,54.233,8.212,59.276,8.16,66.025a2.4,2.4,0,0,0,1.437,2.2,20.378,20.378,0,0,0,2.594.945L9.428,70.747a5.081,5.081,0,0,0-2.556,4.4V76.77a3.788,3.788,0,0,0,3.785,3.783H31.27a3.788,3.788,0,0,0,3.784-3.783V75.149a5.081,5.081,0,0,0-2.556-4.4l-2.764-1.579a20.319,20.319,0,0,0,2.594-.946,2.4,2.4,0,0,0,1.437-2.2c-0.052-6.749-.841-11.792-2.413-15.418a12.994,12.994,0,0,0-3.427-4.845l5.132-5.13h7.23a6.371,6.371,0,0,0,6.191-4.9l4.55,4.548a1.208,1.208,0,0,0,2.062-.854V34.193H68.632a6.367,6.367,0,0,0,6.361-6.359V9.8A6.368,6.368,0,0,0,68.632,3.446ZM31.3,72.843a2.662,2.662,0,0,1,1.339,2.306V76.77a1.37,1.37,0,0,1-1.369,1.368H10.656A1.37,1.37,0,0,1,9.287,76.77V75.149a2.662,2.662,0,0,1,1.339-2.306l2.985-1.7a15.491,15.491,0,0,0,6.97,5.49,1.209,1.209,0,0,0,.764,0,15.489,15.489,0,0,0,6.97-5.49Zm-13.189-5.39L19.016,68a3.781,3.781,0,0,0,3.894,0l0.9-.543a3.789,3.789,0,0,0,1.712,2.092L26.2,69.933A13.269,13.269,0,0,1,20.963,74.2a13.366,13.366,0,0,1-5.241-4.267l0.677-.387A3.789,3.789,0,0,0,18.111,67.453ZM15.729,61.7V56.049c0.8-.04,1.927-0.123,3.15-0.3a14.925,14.925,0,0,0,5.851-1.839L26.2,55.378v6.327a2.669,2.669,0,0,1-1.29,2.277l-3.24,1.943a1.368,1.368,0,0,1-1.409,0l-3.24-1.943A2.67,2.67,0,0,1,15.729,61.7ZM29.136,51.567c1.438,3.318,2.163,8.045,2.214,14.448l-0.009,0a21.122,21.122,0,0,1-4.67,1.394,1.369,1.369,0,0,1-.635-1.152v-0.14l0.114-.068a5.1,5.1,0,0,0,2.463-4.348V54.878a1.207,1.207,0,0,0-.354-0.854l-2.577-2.575a1.208,1.208,0,0,0-1.708,0c-0.852.851-2.772,1.529-5.408,1.908a32.327,32.327,0,0,1-4.045.314,1.208,1.208,0,0,0-1.208,1.207v6.827a5.1,5.1,0,0,0,2.463,4.348l0.114,0.068v0.14a1.369,1.369,0,0,1-.635,1.152,21.109,21.109,0,0,1-4.67-1.394l-0.009,0c0.051-6.4.776-11.129,2.214-14.448,1.687-3.892,4.36-5.784,8.173-5.784S27.449,47.675,29.136,51.567Zm15.1-17.293a3.949,3.949,0,0,1-3.946,3.944h-7.73a1.207,1.207,0,0,0-.854.354l-4.38,4.378V39.424a1.208,1.208,0,0,0-1.208-1.207H9.368a3.949,3.949,0,0,1-3.946-3.944V16.244A3.949,3.949,0,0,1,9.368,12.3H31.35V27.834a6.367,6.367,0,0,0,6.361,6.359h6.522v0.081h0Zm28.344-6.439a3.949,3.949,0,0,1-3.946,3.944H51.883a1.208,1.208,0,0,0-1.208,1.207V36.51L46.3,32.132a1.207,1.207,0,0,0-.854-0.354h-7.73a3.949,3.949,0,0,1-3.945-3.944V9.8a3.949,3.949,0,0,1,3.945-3.944h30.92A3.949,3.949,0,0,1,72.577,9.8V27.834h0ZM70.413,68.261l-6.127-2.3a1.376,1.376,0,0,1-.825-0.872l0.611-.458a5.065,5.065,0,0,0,2.018-3.719l0.289-4.326h0l0.515-7.726a6.36,6.36,0,0,0-6.347-6.781h-7.02a6.36,6.36,0,0,0-6.347,6.781l0.8,12.054A5.064,5.064,0,0,0,50,64.635l0.611,0.458a1.376,1.376,0,0,1-.825.872l-6.127,2.3a5.094,5.094,0,0,0-3.292,4.748v3.762a3.788,3.788,0,0,0,3.784,3.783H69.92A3.788,3.788,0,0,0,73.7,76.771V73.009A5.094,5.094,0,0,0,70.413,68.261ZM49.59,48.7a3.945,3.945,0,0,1,3.937-4.206h7.02A3.945,3.945,0,0,1,64.484,48.7l-0.012.178c-4.105,2.337-12.335,3.241-14.64,3.454Zm0.8,12.053-0.4-6.01c2.153-.192,9.494-0.976,14.293-3.081l-0.318,4.766a4.055,4.055,0,0,1-3.937,3.68H57.037a1.207,1.207,0,1,0,0,2.415h2.995a6.269,6.269,0,0,0,3.51-1.095,2.652,2.652,0,0,1-.919,1.273l-2.7,2.026a2.674,2.674,0,0,1-1.594.531H55.748a2.675,2.675,0,0,1-1.594-.531l-2.7-2.027A2.653,2.653,0,0,1,50.394,60.755Zm5.435,17.384H44.153a1.37,1.37,0,0,1-1.369-1.368V73.009a2.668,2.668,0,0,1,1.724-2.487L48.842,68.9l6.987,4.656v4.585h0ZM51.5,67.764a3.815,3.815,0,0,0,1.086-1.195L52.7,66.661a5.106,5.106,0,0,0,3.044,1.014h2.577a5.106,5.106,0,0,0,3.044-1.014l0.123-.092a3.813,3.813,0,0,0,1.086,1.195l-5.541,3.692ZM71.289,76.77h0a1.37,1.37,0,0,1-1.369,1.368H58.245V73.553L65.231,68.9l4.334,1.624a2.669,2.669,0,0,1,1.724,2.487V76.77Z"/>
</svg>
