<svg xmlns="http://www.w3.org/2000/svg" xmlns:xlink="http://www.w3.org/1999/xlink" preserveAspectRatio="xMidYMid" width="54" height="54" viewBox="0 0 54 54">
  <defs>
    <style>
      .cls-1 {
        fill: #fefefe;
        fill-rule: evenodd;
      }
    </style>
  </defs>
  <path d="M37.573,37.129 C36.630,38.485 35.248,39.545 33.438,40.305 C31.626,41.071 29.485,41.451 27.011,41.451 C24.047,41.451 21.594,40.933 19.656,39.883 C18.281,39.133 17.164,38.129 16.307,36.873 C15.445,35.618 15.010,34.388 15.010,33.188 C15.010,32.482 15.281,31.868 15.804,31.365 C16.335,30.860 17.017,30.607 17.825,30.607 C18.486,30.607 19.052,30.805 19.515,31.201 C19.974,31.594 20.359,32.167 20.672,32.922 C21.049,33.800 21.460,34.532 21.896,35.115 C22.328,35.693 22.937,36.175 23.727,36.552 C24.508,36.930 25.547,37.118 26.847,37.118 C28.627,37.118 30.065,36.735 31.164,35.974 C32.271,35.209 32.802,34.276 32.802,33.149 C32.802,32.250 32.516,31.537 31.930,30.982 C31.336,30.417 30.570,29.987 29.620,29.690 C28.667,29.385 27.385,29.065 25.781,28.727 C23.627,28.258 21.825,27.711 20.364,27.081 C18.903,26.451 17.739,25.589 16.877,24.497 C16.013,23.398 15.583,22.031 15.583,20.411 C15.583,18.867 16.039,17.484 16.947,16.283 C17.859,15.077 19.177,14.153 20.893,13.513 C22.604,12.869 24.620,12.549 26.930,12.549 C28.773,12.549 30.373,12.760 31.724,13.187 C33.070,13.614 34.196,14.179 35.092,14.887 C35.985,15.596 36.644,16.341 37.058,17.125 C37.475,17.908 37.683,18.677 37.683,19.424 C37.683,20.120 37.415,20.752 36.888,21.304 C36.362,21.859 35.690,22.140 34.906,22.138 C34.198,22.138 33.644,21.976 33.258,21.630 C32.883,21.294 32.490,20.763 32.063,20.020 C31.524,18.987 30.880,18.180 30.130,17.602 C29.399,17.036 28.195,16.741 26.518,16.744 C24.966,16.744 23.727,17.062 22.789,17.682 C21.846,18.312 21.396,19.042 21.393,19.898 C21.396,20.435 21.549,20.888 21.859,21.273 C22.174,21.664 22.614,22.002 23.177,22.289 C23.742,22.578 24.315,22.802 24.891,22.964 C25.474,23.128 26.443,23.367 27.787,23.682 C29.471,24.047 31.003,24.453 32.378,24.896 C33.750,25.341 34.920,25.878 35.888,26.516 C36.862,27.154 37.626,27.966 38.170,28.948 C38.717,29.930 38.987,31.131 38.987,32.542 C38.990,34.245 38.516,35.774 37.573,37.129 L37.573,37.129 Z" class="cls-1"/>
</svg>
