<svg xmlns="http://www.w3.org/2000/svg" xmlns:xlink="http://www.w3.org/1999/xlink" preserveAspectRatio="xMidYMid" width="54" height="54" viewBox="0 0 54 54">
  <defs>
    <style>
      .cls-1 {
        fill: #fff;
        fill-rule: evenodd;
      }
    </style>
  </defs>
  <path d="M38.834,27.845 L38.830,27.845 C38.664,27.845 38.529,27.710 38.528,27.541 C38.514,25.714 38.236,24.062 37.699,22.628 C37.165,21.205 36.360,19.954 35.305,18.910 C34.248,17.867 33.047,17.072 31.734,16.545 C30.419,16.017 28.952,15.744 27.376,15.733 C27.210,15.732 27.075,15.593 27.076,15.424 C27.078,15.256 27.213,15.120 27.379,15.120 L27.380,15.120 C30.690,15.145 33.497,16.272 35.727,18.472 C36.846,19.577 37.699,20.902 38.264,22.412 C38.826,23.912 39.118,25.637 39.133,27.536 C39.135,27.705 39.000,27.843 38.834,27.845 ZM32.037,22.448 C32.667,23.108 33.017,24.065 33.078,25.295 C33.086,25.463 32.957,25.606 32.791,25.615 C32.786,25.615 32.780,25.615 32.775,25.615 C32.615,25.615 32.482,25.488 32.474,25.325 C32.422,24.249 32.128,23.425 31.602,22.874 C31.079,22.327 30.296,22.022 29.275,21.966 C29.109,21.957 28.980,21.813 28.989,21.644 C28.998,21.475 29.140,21.346 29.307,21.354 C30.487,21.418 31.404,21.787 32.037,22.448 ZM28.105,18.468 C28.117,18.299 28.261,18.172 28.427,18.184 C30.839,18.364 32.746,19.213 34.097,20.710 C35.455,22.210 36.119,24.103 36.070,26.332 C36.065,26.499 35.930,26.631 35.767,26.631 C35.765,26.631 35.762,26.631 35.759,26.631 C35.593,26.627 35.461,26.487 35.464,26.318 C35.511,24.252 34.901,22.505 33.650,21.123 C33.028,20.433 32.273,19.888 31.402,19.503 C30.530,19.118 29.514,18.880 28.384,18.795 C28.218,18.783 28.092,18.636 28.105,18.468 ZM21.699,25.874 C22.043,27.529 23.008,29.121 24.604,30.646 C26.180,32.157 27.721,33.053 29.170,33.412 C29.374,33.454 30.148,33.560 30.651,32.927 L31.631,31.679 C32.103,31.059 33.247,30.663 34.366,31.294 C34.989,31.650 36.105,32.350 36.805,32.870 C37.547,33.423 39.066,34.705 39.070,34.710 C39.795,35.328 39.961,36.237 39.469,37.197 L39.465,37.215 C38.959,38.123 38.281,38.970 37.424,39.762 C37.415,39.767 37.415,39.772 37.405,39.776 C36.288,40.721 35.199,41.018 34.148,40.673 C30.104,39.058 26.002,36.726 22.209,32.832 C18.375,28.890 15.804,24.462 14.472,20.309 C14.463,20.279 14.342,19.731 14.337,19.702 C14.078,18.195 15.029,17.184 17.655,15.426 C17.669,15.416 17.683,15.402 17.701,15.393 C18.615,14.837 19.522,15.112 20.107,15.594 C20.648,15.975 22.172,17.970 22.172,17.970 C22.471,18.422 24.566,20.980 24.084,22.206 C23.919,22.913 22.692,23.654 22.029,24.264 C22.011,24.279 21.992,24.293 21.976,24.307 C21.696,24.770 21.581,25.085 21.674,25.765 C21.683,25.804 21.688,25.836 21.699,25.874 Z" class="cls-1"/>
</svg>
